#!OML:ASF E:\Style6\Style6.ASF
:FULLY-SPECIFIED
:DEGREES
1918
root 2.65673 16.2774 0.710395 2.04971 -15.9962 22.7415
lowerback 12.9412 0.26283 14.1482
upperback 5.06347 2.31775 17.4868
thorax -1.9597 1.02714 11.0782
lowerneck -9.59401 -0.488609 8.25191
upperneck 27.7424 -4.55877 6.66848
head 10.5784 -0.430989 0.45481
rclavicle -1.59028e-014 -1.59028e-013
rhumerus 35.961 -56.3694 -22.4548
rradius 58.3573
rwrist 36.5928
rhand 27.6108 4.00545
rfingers 7.12502
rthumb 51.5467 -16.3657
lclavicle -1.59028e-014 -1.59028e-013
lhumerus -104.17 -51.8828 128.691
lradius 98.1158
lwrist 30.8755
lhand 0.738196 9.89142
lfingers 7.12502
lthumb 26.2972 38.0887
rfemur -40.6849 -9.96786 -15.7596
rtibia 61.7018
rfoot -20.0081 12.2358
rtoes -16.9948
lfemur -26.2536 19.01 -53.546
ltibia 44.0061
lfoot -20.975 -1.34209
ltoes 1.25141
1919
root 2.64377 16.2935 0.710537 2.09842 -16.1383 22.6414
lowerback 12.9655 0.270747 14.2324
upperback 5.07374 2.33816 17.4779
thorax -1.95847 1.03614 11.0169
lowerneck -9.61841 -0.452346 8.29233
upperneck 27.7601 -4.51537 6.64173
head 10.589 -0.409461 0.443388
rclavicle -2.54444e-014 3.18055e-015
rhumerus 36.1395 -56.2994 -22.6788
rradius 58.4335
rwrist 36.6868
rhand 27.5762 3.92003
rfingers 7.12502
rthumb 51.5153 -16.4692
lclavicle -2.54444e-014 3.18055e-015
lhumerus -103.986 -51.9312 128.591
lradius 98.1029
lwrist 30.8133
lhand 0.934483 10.0144
lfingers 7.12502
lthumb 26.4851 38.1834
rfemur -40.7228 -9.96553 -15.5387
rtibia 61.5457
rfoot -19.9861 12.0455
rtoes -18.2302
lfemur -26.2533 18.9403 -53.3987
ltibia 43.8667
lfoot -20.867 -0.892911
ltoes -0.480836
1920
root 2.6311 16.3099 0.710393 2.14356 -16.3372 22.5121
lowerback 13.0191 0.3085 14.3587
upperback 5.0959 2.40567 17.4637
thorax -1.96167 1.06801 10.9178
lowerneck -9.61888 -0.449121 8.25967
upperneck 27.7344 -4.5411 6.77865
head 10.5854 -0.410743 0.494724
rclavicle -6.67916e-014 -1.27222e-013
rhumerus 36.054 -56.2489 -22.6827
rradius 58.5551
rwrist 36.6683
rhand 27.5557 3.97009
rfingers 7.12502
rthumb 51.4966 -16.4299
lclavicle -6.67916e-014 -1.27222e-013
lhumerus -103.936 -51.9999 128.601
lradius 98.1366
lwrist 30.8244
lhand 0.969262 10.0261
lfingers 7.12502
lthumb 26.5184 38.1902
rfemur -40.7855 -9.87585 -15.2958
rtibia 61.3872
rfoot -19.8585 12.0142
rtoes -18.5254
lfemur -26.2793 18.9216 -53.2203
ltibia 43.7339
lfoot -20.7742 -0.773571
ltoes 0.614313
1921
root 2.61587 16.3227 0.709819 2.18529 -16.5 22.5236
lowerback 13.0456 0.346187 14.3395
upperback 5.09083 2.45753 17.4285
thorax -1.98612 1.09229 10.876
lowerneck -9.51245 -0.437714 8.21884
upperneck 27.6407 -4.53024 6.9105
head 10.5346 -0.403699 0.549563
rclavicle -9.54166e-015 -3.18055e-015
rhumerus 35.849 -56.1211 -22.5047
rradius 58.6437
rwrist 36.5846
rhand 27.5587 3.96812
rfingers 7.12502
rthumb 51.4993 -16.4303
lclavicle -9.54166e-015 -3.18055e-015
lhumerus -103.886 -52.0157 128.659
lradius 98.1534
lwrist 30.8781
lhand 0.687325 9.96329
lfingers 7.12502
lthumb 26.2485 38.1678
rfemur -40.8751 -9.87818 -15.2033
rtibia 61.2628
rfoot -19.6565 12.2146
rtoes -17.6861
lfemur -26.2989 18.895 -53.1824
ltibia 43.592
lfoot -20.6932 -0.867275
ltoes 2.32041
1922
root 2.59837 16.3338 0.707676 2.22298 -16.6801 22.6459
lowerback 13.0375 0.405127 14.1743
upperback 5.11243 2.50492 17.374
thorax -1.96833 1.11538 10.8919
lowerneck -9.43516 -0.414043 8.33257
upperneck 27.5536 -4.49492 6.89052
head 10.4857 -0.386218 0.526818
rclavicle -1.27222e-014 1.52667e-013
rhumerus 35.6784 -56.0011 -22.3235
rradius 58.676
rwrist 36.4739
rhand 27.4794 3.77922
rfingers 7.12502
rthumb 51.4272 -16.6606
lclavicle -1.27222e-014 1.52667e-013
lhumerus -103.657 -52.0584 128.615
lradius 98.1694
lwrist 30.9431
lhand 0.558878 9.9696
lfingers 7.12502
lthumb 26.1256 38.1923
rfemur -41.0207 -9.88958 -15.2231
rtibia 61.1538
rfoot -19.4724 12.4149
rtoes -17.1063
lfemur -26.339 18.8808 -53.2576
ltibia 43.4391
lfoot -20.605 -0.832425
ltoes 2.47249
1923
root 2.58288 16.3464 0.703274 2.31647 -16.8394 22.6821
lowerback 13.0346 0.466305 14.1058
upperback 5.1296 2.56901 17.3393
thorax -1.95543 1.14645 10.8759
lowerneck -9.39972 -0.403244 8.5255
upperneck 27.4424 -4.47103 6.78547
head 10.4325 -0.376011 0.458679
rclavicle -1.90833e-014 -2.22639e-014
rhumerus 35.6843 -55.9806 -22.4113
rradius 58.7385
rwrist 36.5254
rhand 27.4 3.78966
rfingers 7.12502
rthumb 51.3549 -16.6915
lclavicle -1.90833e-014 -2.22639e-014
lhumerus -103.389 -52.1252 128.561
lradius 98.2025
lwrist 30.9394
lhand 0.619884 10.0277
lfingers 7.12502
lthumb 26.184 38.2418
rfemur -41.1988 -9.92717 -15.1476
rtibia 61.0574
rfoot -19.2404 12.6418
rtoes -15.9956
lfemur -26.425 18.8301 -53.2695
ltibia 43.3009
lfoot -20.5612 -0.490516
ltoes 0.924198
1924
root 2.56824 16.3594 0.699309 2.37915 -17.0013 22.572
lowerback 13.1251 0.48153 14.1592
upperback 5.15091 2.61052 17.3605
thorax -1.98311 1.16474 10.8663
lowerneck -9.34238 -0.385597 8.50707
upperneck 27.3729 -4.45491 6.88045
head 10.3993 -0.366257 0.496936
rclavicle 0 7.95139e-014
rhumerus 35.8252 -55.9203 -22.6331
rradius 58.8294
rwrist 36.6727
rhand 27.4111 3.8582
rfingers 7.12502
rthumb 51.3651 -16.6172
lclavicle 0 7.95139e-014
lhumerus -103.112 -52.0602 128.477
lradius 98.2458
lwrist 30.8461
lhand 0.704081 10.0936
lfingers 7.12502
lthumb 26.2646 38.2957
rfemur -41.3039 -9.91141 -14.9123
rtibia 60.971
rfoot -19.1013 12.7679
rtoes -15.3003
lfemur -26.4567 18.7977 -53.11
ltibia 43.1966
lfoot -20.5684 -0.121238
ltoes -0.757625
1925
root 2.55242 16.3678 0.697999 2.47373 -17.2008 22.398
lowerback 13.1335 0.483222 14.3011
upperback 5.1918 2.6163 17.3675
thorax -1.93386 1.16666 10.7952
lowerneck -9.22919 -0.370481 8.42761
upperneck 27.3317 -4.46782 7.1183
head 10.3718 -0.359367 0.593735
rclavicle -4.45278e-014 -1.27222e-014
rhumerus 35.9514 -55.8132 -22.8121
rradius 58.8283
rwrist 36.7075
rhand 27.3283 3.79582
rfingers 7.12502
rthumb 51.2897 -16.7224
lclavicle -4.45278e-014 -1.27222e-014
lhumerus -102.957 -51.9634 128.456
lradius 98.3107
lwrist 30.8345
lhand 0.688099 10.1363
lfingers 7.12502
lthumb 26.2493 38.3407
rfemur -41.4568 -9.88566 -14.6021
rtibia 60.916
rfoot -18.9898 12.9438
rtoes -14.7296
lfemur -26.5458 18.7774 -52.8961
ltibia 43.1522
lfoot -20.6212 0.347328
ltoes -2.88175
1926
root 2.53548 16.372 0.695887 2.55324 -17.3944 22.3236
lowerback 13.105 0.504817 14.3913
upperback 5.24398 2.62916 17.3284
thorax -1.85304 1.17357 10.694
lowerneck -9.1317 -0.359462 8.46109
upperneck 27.2376 -4.47702 7.26356
head 10.3236 -0.35287 0.638254
rclavicle -3.49861e-014 1.11319e-013
rhumerus 35.9759 -55.7604 -22.9711
rradius 58.8817
rwrist 36.7399
rhand 27.4163 3.75489
rfingers 7.12502
rthumb 51.3698 -16.7178
lclavicle -3.49861e-014 1.11319e-013
lhumerus -102.876 -51.9713 128.533
lradius 98.3709
lwrist 30.8434
lhand 0.561284 10.1085
lfingers 7.12502
lthumb 26.1279 38.3309
rfemur -41.6495 -9.89906 -14.4019
rtibia 60.9081
rfoot -18.8397 13.1567
rtoes -13.7044
lfemur -26.6624 18.7579 -52.7887
ltibia 43.1526
lfoot -20.6749 0.874078
ltoes -5.27918
1927
root 2.51921 16.3717 0.691379 2.61419 -17.5405 22.3048
lowerback 13.1235 0.52936 14.3628
upperback 5.27771 2.6519 17.3288
thorax -1.82887 1.18405 10.7067
lowerneck -9.11907 -0.385219 8.44675
upperneck 27.2014 -4.53134 7.35782
head 10.3116 -0.371311 0.667732
rclavicle -2.8625e-014 0
rhumerus 36.1854 -55.7283 -23.3304
rradius 58.9695
rwrist 36.8424
rhand 27.5215 3.81074
rfingers 7.12502
rthumb 51.4655 -16.6071
lclavicle -2.8625e-014 0
lhumerus -102.803 -51.944 128.743
lradius 98.342
lwrist 30.6173
lhand 0.273102 9.97577
lfingers 7.12502
lthumb 25.8519 38.2387
rfemur -41.8449 -9.96465 -14.2776
rtibia 60.96
rfoot -18.6114 13.4866
rtoes -11.9305
lfemur -26.7827 18.707 -52.7395
ltibia 43.2054
lfoot -20.7551 1.16166
ltoes -6.06643
1928
root 2.50159 16.3676 0.684487 2.64497 -17.6788 22.3509
lowerback 13.1374 0.568882 14.2115
upperback 5.34293 2.67229 17.3381
thorax -1.77439 1.19385 10.7993
lowerneck -9.08385 -0.393659 8.50145
upperneck 27.1031 -4.54342 7.38013
head 10.2689 -0.376415 0.664066
rclavicle -1.59028e-014 -6.04305e-014
rhumerus 36.3709 -55.6972 -23.6127
rradius 59.0161
rwrist 36.8966
rhand 27.3913 3.73711
rfingers 7.12502
rthumb 51.3471 -16.7485
lclavicle -1.59028e-014 -6.04305e-014
lhumerus -102.644 -51.9336 128.866
lradius 98.3868
lwrist 30.3862
lhand 0.0568058 9.9704
lfingers 7.12502
lthumb 25.6448 38.2633
rfemur -42.074 -10.0663 -14.2033
rtibia 61.0642
rfoot -18.4884 13.7021
rtoes -11.5511
lfemur -26.9413 18.7358 -52.7571
ltibia 43.3062
lfoot -20.8422 1.42661
ltoes -6.04099
1929
root 2.48295 16.3615 0.674231 2.70481 -17.8082 22.3048
lowerback 13.1786 0.605106 14.1871
upperback 5.40793 2.70886 17.3172
thorax -1.72791 1.21202 10.7812
lowerneck -9.02005 -0.356258 8.61086
upperneck 27.0223 -4.52262 7.47842
head 10.2308 -0.352544 0.682497
rclavicle -3.49861e-014 -3.81667e-014
rhumerus 36.4954 -55.7302 -23.8506
rradius 58.9732
rwrist 36.9244
rhand 27.357 3.77597
rfingers 7.12502
rthumb 51.3158 -16.7274
lclavicle -3.49861e-014 -3.81667e-014
lhumerus -102.498 -52.0016 128.875
lradius 98.4656
lwrist 30.2997
lhand -0.0191202 9.9172
lfingers 7.12502
lthumb 25.5721 38.2206
rfemur -42.345 -10.1379 -14.0203
rtibia 61.2057
rfoot -18.451 13.8187
rtoes -11.6238
lfemur -27.1626 18.7978 -52.6803
ltibia 43.4763
lfoot -20.998 1.78728
ltoes -6.44905
1930
root 2.46527 16.3544 0.665482 2.75886 -17.896 22.2445
lowerback 13.2481 0.612395 14.1855
upperback 5.43181 2.72861 17.295
thorax -1.74044 1.22105 10.7515
lowerneck -8.88522 -0.296994 8.67599
upperneck 26.9904 -4.47633 7.63301
head 10.1994 -0.314099 0.732097
rclavicle 9.54166e-015 5.08889e-014
rhumerus 36.6481 -55.7149 -24.0975
rradius 58.8545
rwrist 36.9958
rhand 27.2971 3.81431
rfingers 7.12502
rthumb 51.2613 -16.7201
lclavicle 9.54166e-015 5.08889e-014
lhumerus -102.412 -51.9859 128.912
lradius 98.453
lwrist 30.215
lhand -0.0445513 9.76822
lfingers 7.12502
lthumb 25.5477 38.0751
rfemur -42.564 -10.239 -13.8372
rtibia 61.3869
rfoot -18.371 14.0503
rtoes -10.7597
lfemur -27.38 18.8024 -52.5937
ltibia 43.7214
lfoot -21.1701 2.15449
ltoes -6.92601
1931
root 2.44718 16.3461 0.657555 2.80236 -17.9964 22.1054
lowerback 13.3285 0.605566 14.2376
upperback 5.48577 2.7311 17.3
thorax -1.72156 1.22169 10.7288
lowerneck -8.84316 -0.233699 8.78532
upperneck 27.0443 -4.43742 7.71686
head 10.2154 -0.274725 0.749128
rclavicle -2.8625e-014 1.20861e-013
rhumerus 36.8179 -55.6993 -24.3708
rradius 58.7561
rwrist 37.0274
rhand 27.2464 3.76008
rfingers 7.12502
rthumb 51.2152 -16.8005
lclavicle -2.8625e-014 1.20861e-013
lhumerus -102.42 -51.9545 129.012
lradius 98.5055
lwrist 30.1066
lhand -0.00763548 9.73325
lfingers 7.12502
lthumb 25.5831 38.0351
rfemur -42.7843 -10.3443 -13.558
rtibia 61.6097
rfoot -18.3529 14.2841
rtoes -10.1948
lfemur -27.6139 18.841 -52.4273
ltibia 44.0557
lfoot -21.3321 2.36654
ltoes -6.81115
1932
root 2.42808 16.3289 0.646668 2.76746 -18.0597 22.1165
lowerback 13.446 0.610532 14.1861
upperback 5.53934 2.74758 17.2515
thorax -1.72909 1.22986 10.6947
lowerneck -8.83963 -0.228641 8.90087
upperneck 27.0879 -4.50452 7.8753
head 10.2385 -0.273602 0.779885
rclavicle 1.27222e-014 1.01778e-013
rhumerus 36.8182 -55.7353 -24.5555
rradius 58.7076
rwrist 37.0189
rhand 27.1767 3.82728
rfingers 7.12502
rthumb 51.1517 -16.7691
lclavicle 1.27222e-014 1.01778e-013
lhumerus -102.554 -52.0183 129.208
lradius 98.6017
lwrist 30.0111
lhand -0.0521811 9.69285
lfingers 7.12502
lthumb 25.5404 38.0008
rfemur -43.0053 -10.5113 -13.4511
rtibia 61.903
rfoot -18.2398 14.6767
rtoes -8.82859
lfemur -27.8607 18.9062 -52.3914
ltibia 44.4837
lfoot -21.5025 2.46066
ltoes -6.19282
